<?xml version="1.0" standalone="no"?>
<!DOCTYPE svg PUBLIC "-//W3C//DTD SVG 20010904//EN"
 "http://www.w3.org/TR/2001/REC-SVG-20010904/DTD/svg10.dtd">
<svg version="1.0" xmlns="http://www.w3.org/2000/svg"
 width="263.000000pt" height="263.000000pt" viewBox="0 0 263.000000 263.000000"
 preserveAspectRatio="xMidYMid meet">
<metadata>
Created by potrace 1.14, written by Peter Selinger 2001-2017
</metadata>
<g transform="translate(0.000000,263.000000) scale(0.100000,-0.100000)"
fill="#000000" stroke="none">
<path d="M1230 2493 c-41 -69 -77 -131 -80 -137 -3 -6 -12 -22 -21 -36 -14
-21 -222 -375 -278 -472 -10 -18 -41 -70 -67 -116 -63 -107 -59 -100 -128
-220 -33 -56 -63 -102 -66 -102 -3 0 -96 124 -205 275 -110 151 -203 275 -207
275 -4 0 -6 -293 -5 -652 l2 -652 315 -183 c173 -101 326 -189 340 -196 14 -8
128 -73 253 -146 l228 -131 92 54 c51 29 108 63 127 74 19 11 123 70 230 132
107 62 281 162 385 223 197 113 259 150 285 167 17 11 19 6 -99 210 -40 69
-118 204 -173 300 -98 171 -164 284 -258 445 -26 44 -59 100 -72 125 -40 71
-207 359 -243 420 -18 30 -48 82 -67 116 -71 128 -203 354 -208 354 -3 0 -39
-57 -80 -127z"/>
</g>
</svg>
