<?xml version="1.0" encoding="UTF-8"?><svg id="Layer_2" xmlns="http://www.w3.org/2000/svg" viewBox="0 0 228 263"><defs><style>.cls-1{fill:#154d88;}.cls-2{fill:#154a89;}.cls-3{fill:#0a7372;}.cls-4{fill:#fff;}.cls-5{fill:#479894;}.cls-6{fill:#145c83;}.cls-7{fill:#135e82;}.cls-8{fill:#018759;}.cls-9{fill:#5083a3;}.cls-10{fill:#156b79;}.cls-11{fill:#0a7b6a;}.cls-12{fill:#213c8b;}.cls-13{fill:#0a7b69;}.cls-14{fill:#028c51;}.cls-15{fill:#155088;}.cls-16{fill:#165287;}.cls-17{fill:#0b7d67;}.cls-18{fill:#126180;}.cls-19{fill:#008a54;}.cls-20{fill:#155087;}.cls-21{fill:#05855c;}.cls-22{fill:#18448a;}.cls-23{fill:#155b83;}.cls-24{fill:#13687c;}.cls-25{fill:#11647f;}.cls-26{fill:#09796b;}.cls-27{fill:#088360;}.cls-28{fill:#1b428a;}.cls-29{fill:#097a6b;}.cls-30{fill:#4d8b9f;}.cls-31{fill:#08786d;}.cls-32{fill:#154e88;}.cls-33{fill:#08766f;}.cls-34{fill:#0c7f65;}.cls-35{fill:#7880b7;}.cls-36{fill:#165984;}.cls-37{fill:#099344;}.cls-38{fill:#0b973e;}.cls-39{fill:#028659;}.cls-40{fill:#1d3f8a;}.cls-41{fill:#41a681;}.cls-42{fill:#507aa6;}.cls-43{fill:#0a8162;}.cls-44{fill:#26348b;}.cls-45{fill:#25388b;}.cls-46{fill:#126280;}.cls-47{fill:#08776e;}.cls-48{fill:#048e4c;}.cls-49{fill:#008856;}.cls-50{fill:#0a7373;}.cls-51{fill:#0b983a;}.cls-52{fill:#0b7f64;}.cls-53{fill:#0d7076;}.cls-54{fill:#4f909b;}.cls-55{fill:#154989;}.cls-56{fill:#069049;}.cls-57{fill:#008857;}.cls-58{fill:#175686;}.cls-59{fill:#164789;}.cls-60{fill:#116e77;}.cls-61{fill:#08835f;}.cls-62{fill:#0b9540;}.cls-63{fill:#47a08a;}</style></defs><g id="Layer_1-2"><g><path class="cls-4" d="m114,.08C150.81.08,187.61.13,224.42,0c2.98-.01,3.58.6,3.58,3.58-.11,64.46-.08,128.92-.08,193.38-.28.34-.64.45-1.06.34-.76-.39-1.24-1.04-1.66-1.74-.32-.51-.6-1.04-.89-1.56-.39-.69-.8-1.37-1.27-2.02-.59-.83-1.11-1.69-1.58-2.59-.37-.71-.71-1.43-1.06-2.15-.36-.7-.73-1.4-1.19-2.04-.49-.65-.94-1.33-1.33-2.04-.85-1.71-2.02-3.22-2.98-4.86-1.27-2.77-3.03-5.27-4.51-7.92-.65-1.32-1.23-2.68-2.08-3.89-.7-1.03-1.33-2.1-1.91-3.2-.38-.72-.74-1.45-1.12-2.17-.65-1.27-1.51-2.4-2.21-3.64-.58-1.09-1.13-2.18-1.87-3.18-.74-1.04-1.37-2.14-1.97-3.26-.89-1.98-2.15-3.74-3.25-5.59-1.13-2.4-2.53-4.65-3.95-6.89-1.14-2.4-2.51-4.67-3.94-6.91-.78-1.57-1.74-3.04-2.74-4.47-1.07-1.9-1.86-3.94-3.13-5.73-1.09-1.62-1.93-3.39-2.86-5.1-.84-1.69-2.02-3.18-2.87-4.87-.38-.72-.72-1.45-1.08-2.18-.36-.7-.73-1.39-1.18-2.04-.68-.97-1.27-1.99-1.84-3.03-.54-1.05-1.23-2-1.89-2.97-.41-.67-.76-1.38-1.12-2.08-.36-.7-.71-1.41-1.09-2.1-.56-1.06-1.29-2.02-1.94-3.02-.7-1.25-1.28-2.57-2-3.81-.67-1.29-1.53-2.46-2.26-3.71-.82-1.69-1.91-3.22-2.87-4.82-.41-.72-.78-1.46-1.15-2.2-.54-1.11-1.1-2.2-1.83-3.19-.73-1.03-1.36-2.11-1.95-3.22-.79-1.74-1.81-3.33-2.9-4.89-.74-1.31-1.33-2.69-2.09-3.98-.92-1.7-2.07-3.27-2.99-4.98-.92-1.72-2.1-3.27-2.98-5.01-.87-1.99-2.11-3.76-3.23-5.61-.93-1.73-1.67-3.56-2.87-5.14-.42-.54-.81-1.11-1.17-1.7-6.74-11.98-13.66-23.85-20.56-35.73-.75-1.29-1.67-2.48-2.07-3.94-.12-.77.03-1.46.58-2.03Z"/><path class="cls-4" d="m114,.08c0,.61,0,1.22,0,1.83-8.06,13.3-15.57,26.92-23.68,40.18-.43.8-.88,1.58-1.32,2.37-.65,1.14-1.46,2.18-2.08,3.34-1.16,2.33-2.79,4.38-3.93,6.72-1,1.66-2.18,3.21-2.97,5-.85,1.76-1.93,3.38-2.95,5.04-.54.95-1.01,1.95-1.57,2.89-1.32,1.81-2.35,3.78-3.35,5.77-.62,1.13-1.43,2.13-2.09,3.22-.41.71-.81,1.44-1.21,2.17-.6,1.08-1.37,2.05-1.95,3.14-.84,1.68-1.88,3.23-2.86,4.81-.73,1.25-1.36,2.55-2.03,3.83-.59,1.07-1.36,2.02-1.97,3.08-.49.86-.92,1.76-1.41,2.62-.52.82-1.17,1.56-1.66,2.4-.38.68-.75,1.37-1.09,2.07-.35.72-.71,1.44-1.09,2.15-.49.89-1.11,1.7-1.64,2.56-.4.69-.78,1.4-1.13,2.11-.17.36-.37.71-.6,1.04-.59.81-1.2,1.6-1.64,2.51-.81,1.72-1.93,3.25-2.84,4.91-1.39,2.28-2.05,5.1-4.71,6.46-1.01.22-1.81-.2-2.55-.8-1.51-1.66-2.71-3.57-4.19-5.27-1.85-2.72-3.89-5.31-5.92-7.9-1.28-2.02-2.55-4.04-4.11-5.87-1.24-1.8-2.56-3.54-3.95-5.22-1.49-2.42-3.13-4.74-4.95-6.92-1.26-2.04-2.9-3.82-4.18-5.85-1.15-1.88-2.54-3.58-3.93-5.28-2.31-3.57-5.33-6.65-7.39-10.4-.3-.59-.46-1.26-.95-1.75C.1,45.95.19,24.85,0,3.76-.03.48.94,0,3.9.02c36.7.1,73.4.07,110.11.07Z"/><path class="cls-4" d="m227.08,196.96c.28,0,.56,0,.83,0,0,20.82-.08,41.64.09,62.46.02,2.98-.6,3.59-3.58,3.58-36.47-.13-72.94-.08-109.41-.08-.31-.43-.35-.88-.09-1.34,9.08-6.79,19.38-11.58,29.06-17.38,10.12-6.07,20.45-11.79,30.59-17.83,4.06-1.85,7.69-4.48,11.68-6.46,3.18-1.85,6.31-3.8,9.48-5.66,3.1-1.41,5.82-3.51,8.89-4.97,2.32-1.31,4.56-2.76,6.95-3.93,1.73-.87,3.28-2.05,4.99-2.95,1.12-.58,2.15-1.3,3.2-2,1.27-.72,2.61-1.3,3.88-2.02,1.11-.55,2.13-1.34,3.45-1.4Z"/><path class="cls-4" d="m112.01,262.92c-36.04,0-72.07-.04-108.11.07-2.95,0-3.93-.46-3.9-3.74.19-20.43.1-40.86.1-61.29.3-.33.68-.52,1.12-.57,1.54.17,2.71,1.24,4.14,1.7,1.18.5,2.2,1.28,3.29,1.95,1.07.68,2.08,1.46,3.2,2.05,1.94.96,3.69,2.24,5.61,3.24,2.38,1.21,4.64,2.62,6.96,3.94,3.04,1.55,5.85,3.5,8.89,5.04,2.57,1.96,5.6,3.14,8.3,4.89,4.08,2.27,8.04,4.75,12.21,6.85,17.93,10.76,36.28,20.79,54.21,31.54,1.72,1.03,4.24,1.44,3.99,4.34Z"/><path class="cls-44" d="m112.01,262.92c-4.71-4.23-10.51-6.74-15.87-9.92-13.2-7.83-26.58-15.37-39.87-23.04-1.12-.65-2.14-1.45-3.21-2.19-.88-2.15.73-2.57,2.17-3,1.77-.53,3.62-.44,5.45-.44,35.57-.01,71.14-.05,106.72.07,2.65,0,6.19-1.38,7.62,2.64-6.09,4.77-13.07,8.1-19.69,11.98-13.32,7.79-26.78,15.34-40.18,22.99-.38.29-.79.55-1.12.9h-2Z"/><path class="cls-5" d="m.1,127v-22.99c.57-.32,1.05-.23,1.46.29.93,1.53.85,3.24.9,4.93.08,2.22.06,4.45.03,6.67.02,2.21.04,4.41-.04,6.62-.04,1.39-.09,2.78-.88,4-.38.47-.87.63-1.46.47Z"/><path class="cls-9" d="m.1,178.97v-20.99c.43-.33.86-.31,1.29,0,.77,1.05.81,2.27.88,3.5.04.48.04.97.04,1.45.03.49.02.97.02,1.46.02.73.03,1.47.03,2.21.02,1.51.04,3.01.05,4.52-.02,2.08.1,4.17-.24,6.24-.12.53-.34,1.01-.66,1.45-.43.45-.9.5-1.41.16Z"/><path class="cls-63" d="m1.01,104.02c-.3,0-.61,0-.91,0v-18.99c.5-.35.96-.3,1.39.14.31.44.53.92.65,1.44.31,1.57.25,3.17.29,4.76.05,2.14.05,4.29.02,6.43-.01,1.65.06,3.31-.44,4.91-.2.54-.54.97-1.01,1.3Z"/><path class="cls-42" d="m.1,178.97c.31,0,.61,0,.92,0,1.18.91,1.23,2.24,1.34,3.55.04.76.04,1.52.02,2.28,0,.97-.03,1.95-.04,2.93.02.71,0,1.42-.02,2.12,0,.92-.03,1.84-.04,2.77.01.68,0,1.37-.04,2.05,0,.46-.05.91-.12,1.37-.13.7-.42,1.31-.96,1.78-.35.05-.7.1-1.05.15,0-6.33,0-12.66,0-18.99Z"/><path class="cls-41" d="m1.01,85.04c-.3,0-.61,0-.91,0v-17.99l1.01.92c1.99,3.77,1.49,7.83,1.41,11.84-.06,1.87.13,3.82-1.51,5.24Z"/><path class="cls-30" d="m1.01,157.98c-.3,0-.61,0-.91,0v-15.99c.51-.34.97-.28,1.39.17.77,1.15.85,2.46.89,3.78.04,1.51,0,3.01-.01,4.52,0,.97-.03,1.93-.06,2.9.01.48,0,.95-.04,1.43-.03.72-.14,1.42-.37,2.11-.19.45-.49.81-.89,1.08Z"/><path class="cls-54" d="m1.01,141.99c-.31,0-.61,0-.92,0v-14.99c.3,0,.6.02.91.03.2.18.4.37.6.55.71,1.23.75,2.59.8,3.95.07,2.19.09,4.39.03,6.58-.06,1.44-.17,2.87-1.42,3.87Z"/><path class="cls-35" d="m114,262.92c.37-.3.75-.6,1.12-.9-.09.29-.13.59-.12.9h-1Z"/><path class="cls-24" d="m1.01,141.99c.06-1.33.11-2.66.17-3.99,1.9-1.78,4.31-1.6,6.62-1.6,59.44-.03,118.87-.03,178.31-.01,2.35,0,4.68.12,6.67,1.61,1.77,2.09,3.15,4.41,4,7.02-.84,2.06-2.71,2.25-4.54,2.45-1.82.2-3.65.14-5.48.14-58.83,0-117.65.01-176.48-.03-3.09,0-6.37.7-9.1-1.58-.06-1.33-.11-2.67-.17-4Z"/><path class="cls-58" d="m1.18,177.97v-7c2.07-1.89,4.65-1.59,7.11-1.59,66.08-.05,132.16.01,198.24-.05,1.51,0,2.99.11,4.44.54,1.99,2.46,3.77,5.06,4.78,8.1-1.87,1.86-4.3,1.59-6.58,1.59-67.13.04-134.26.04-201.39,0-2.3,0-4.7.18-6.6-1.6Z"/><path class="cls-10" d="m192.77,138c-63.86,0-127.73,0-191.59,0,0-2.33,0-4.67,0-7,1.91-1.77,4.31-1.59,6.62-1.59,58.1-.03,116.21-.03,174.31-.01,2.35,0,4.67.12,6.67,1.61,1.77,2.08,3.12,4.4,4,7Z"/><path class="cls-16" d="m1.18,177.97c71.52,0,143.05,0,214.57,0,1.14,1.58,2.6,2.97,3,5-1.74,1.78-4.02,1.38-6.13,1.38-68.43.03-136.85.03-205.28,0-2.14,0-4.38.28-6.16-1.39-.06-1.33-.11-2.67-.17-4,.06-.33.11-.66.17-.99Z"/><path class="cls-36" d="m210.98,169.87c-1.76,1.95-4.07,1.06-6.12,1.07-67.89.05-135.78.04-203.67.04,0-1.67,0-3.33,0-5,1.78-1.67,4.01-1.39,6.15-1.39,64.99-.03,129.99-.02,194.98-.02,2.35,0,4.66.06,6.73,1.37,1.13,1.07,1.79,2.37,1.93,3.93Z"/><path class="cls-7" d="m1.01,157.98c.06-.33.12-.67.17-1,1.78-1.67,4.02-1.39,6.16-1.39,63.41-.02,126.82-.02,190.23-.02,2.18,0,4.35,0,6.2,1.41.61,1.4,2.49,2.08,2.28,3.96-2.38,2.24-5.4,2.41-8.39,2.41-63.61.06-127.21.04-190.82.02-1.98,0-4.04.15-5.66-1.39-.06-1.33-.12-2.67-.17-4Z"/><path class="cls-51" d="m89.19,42.06c7.59-12.86,15.22-25.69,22.67-38.63.63-1.09,1.22-1.31,2.15-1.51,8.35,12.99,16.08,26.34,23.1,40.1-1.54,1.66-3.58,1.51-5.56,1.52-12.26.03-24.52.03-36.78,0-1.97,0-4.02.17-5.57-1.48Z"/><path class="cls-25" d="m1.18,145.99c62.93,0,125.86,0,188.79-.02,2.3,0,4.69.45,6.8-.96,1.38,1.82,3,3.5,3.28,5.93-1.7,1.81-3.95,1.51-6.08,1.52-62.22.02-124.45.02-186.67,0-2.15,0-4.37.21-6.12-1.48,0-1.66,0-3.33,0-4.99Z"/><path class="cls-3" d="m41.95,121.96c1.42-2.31,2.85-4.61,4.27-6.92,1.75-.64,3.58-.66,5.42-.66,40.09.04,80.18,0,120.27.04,2.8,0,5.71-.38,8.15,1.55.98,1.64,1.96,3.29,2.93,4.93.11,2.46-1.67,3-3.52,3.41-1.47.33-2.98.29-4.47.29-41.27.01-82.53.04-123.8-.03-3.28,0-6.75.29-9.26-2.62Z"/><path class="cls-53" d="m41.95,121.96c4.87,1.26,9.85,1.05,14.82,1.05,40.04-.01,80.09,0,120.13-.03,2.22,0,4.8.76,6.1-2.08,1.45,1.8,2.63,3.75,3.07,6.07-1.86,1.88-4.28,1.63-6.58,1.63-57.24.04-114.47.04-171.71,0-2.31,0-4.71.16-6.6-1.63,0,0-.18.07-.18.07.06-1.34.12-2.69.18-4.04,2.08-1.86,4.66-1.46,7.11-1.52,10.6-.25,21.23.52,31.82-.59l1.84,1.07Z"/><path class="cls-60" d="m1.18,126.97c61.63,0,123.26,0,184.88,0,1.8.74,2.03,2.54,2.71,4.03-62.53,0-125.07,0-187.6,0,0-1.34,0-2.68,0-4.03Z"/><path class="cls-1" d="m1.18,192.96c0-1,0-2,0-3,2.44-2.08,5.4-1.38,8.15-1.38,67.59-.04,135.18-.04,202.76,0,3.3,0,6.65-.61,9.93.33.65.98,1.29,1.96,1.94,2.94.16,1.59-1.01,1.93-2.16,2.22-1.63.4-3.31.29-4.97.29-69.5.02-139.01.01-208.51-.01-2.44,0-5.04.5-7.15-1.39Z"/><path class="cls-15" d="m1.18,187.96c0-1,0-2,0-3,1.74-1.41,3.81-.98,5.77-.98,68.92-.02,137.83-.02,206.75-.01,2.15,0,4.35-.23,6.33.95,1.07.3.79,1.28,1,2-1.67,2.14-4.07,2.01-6.39,2.02-69.57.03-139.13.02-208.7,0-1.64,0-3.36.23-4.77-.98Z"/><path class="cls-46" d="m1.18,150.99c66.29-.01,132.58-.03,198.88-.04.67,1,1.33,2,2,3-.46.51-1.02.87-1.66,1.09-2.13.52-4.3.35-6.46.35-61.54.01-123.07.02-184.61-.02-2.76,0-5.71.7-8.15-1.38,0-1,0-2,0-3Z"/><path class="cls-33" d="m180.07,115.97c-42.85.01-85.7.03-128.55.05-1.83,0-3.67.12-5.29-.98,1-1.67,2-3.33,3-5,6.76.85,13.55.56,20.33.56,34.53,0,69.06.05,103.59-.02,1.32,0,2.66-.22,3.92.39,1.02,1.66,2.79,2.86,3,5Z"/><path class="cls-21" d="m63.21,86.03c1-1.67,2-3.33,3-5,2.02-1.47,4.36-1.41,6.7-1.41,26.74,0,53.47,0,80.21,0,2.33,0,4.68-.12,6.69,1.4,1.14,1.58,2.59,2.97,3,5-1.87,1.86-4.3,1.58-6.59,1.59-28.8.05-57.6.05-86.4,0-2.29,0-4.72.28-6.59-1.59Z"/><path class="cls-55" d="m1.15,197.8c.01-.61.02-1.23.03-1.84,1.78-1.67,4.01-1.4,6.15-1.39,48.55.11,97.09-.08,145.64.1,21.94.08,43.88.01,65.83-.12,2.33-.01,4.66-.07,6.95.43.44.66.89,1.32,1.33,1.98-.65,1.28-1.58,2.13-3.12,2.11-3.64.29-7.29.31-10.95.31-65.82-.01-131.64-.01-197.46,0-3.48,0-6.98-.22-10.44.41-2.03.75-2.57-1.48-3.96-1.99Z"/><path class="cls-2" d="m1.18,192.96c48.61,0,97.22,0,145.83,0,23.78,0,47.55.02,71.33-.04,1.89,0,4.04.79,5.63-1.07,1.12.29.87,1.29,1.07,2.06-1.58,1.55-3.57,1.53-5.59,1.53-71.62-.01-143.25,0-214.87-.02-1.14,0-2.34.24-3.39-.47,0-.67,0-1.33,0-2Z"/><path class="cls-32" d="m1.18,187.96c60.22,0,120.44,0,180.65,0,8.12,0,16.24-.02,24.37,0,4.97.01,9.95.21,14.83-1.04,1.07.3.79,1.26.99,1.99-2.28,1.42-4.82,1.04-7.29,1.04-71.18,0-142.37,0-213.55,0,0-.67,0-1.33,0-2Z"/><path class="cls-34" d="m58.01,95.91c-.24-1.23.72-1.94,1.21-2.86,1.75-.64,3.58-.65,5.41-.65,31.43.04,62.86,0,94.29.04,2.8,0,5.71-.39,8.15,1.55,1.26.58,2.02,1.47,1.94,2.94-.55,3.21-3.19,2.38-5.12,2.44-5.8.19-11.61.07-17.41.07-26.87,0-53.74,0-80.61,0-1.82,0-3.67.15-5.46-.24-1.68-.36-3.38-.89-2.4-3.28Z"/><path class="cls-20" d="m220.03,184.92c-72.95.01-145.9.03-218.85.04,0-.67,0-1.33,0-2,72.52,0,145.05,0,217.57,0l1.28,1.95Z"/><path class="cls-48" d="m76.2,64.06c1-1.67,2-3.34,3-5.01,2.13-1.61,4.63-1.6,7.13-1.61,17.88-.01,35.76-.02,53.65,0,2.48,0,5.01-.15,7.12,1.56.72,1.8,2.93,2.71,2.93,4.93-.39,2.85-2.78,2.57-4.59,2.58-21.41.19-42.81.2-64.22.01-1.97-.02-4.07-.19-5.02-2.47Z"/><path class="cls-43" d="m167.08,93.98c-34.19.01-68.38.03-102.57.05-1.83,0-3.67.12-5.29-.98.67-1.01,1.33-2.02,2-3.03,2.14-1.61,4.64-1.61,7.14-1.61,29.86-.01,59.73-.02,89.59,0,2.48,0,5.02-.15,7.13,1.56,1.16,1.08,1.77,2.45,2,4Z"/><path class="cls-23" d="m209.04,165.94c-69.29.01-138.57.03-207.86.04,0-.67,0-1.33,0-2,2.07-1.57,4.49-.97,6.77-.97,42.29-.04,84.57-.03,126.86-.03,20.62,0,41.23-.07,61.85.07,3.46.02,6.91-1.25,10.38-.12.67,1,1.34,2,2,3Z"/><path class="cls-27" d="m165.08,89.99c-34.62.01-69.24.03-103.86.04.67-1.33,1.33-2.67,2-4,33.19,0,66.39,0,99.58,0,.61,1.41,2.49,2.08,2.28,3.96Z"/><path class="cls-18" d="m200.93,153.99c.37-.01.75-.03,1.12-.04.57,1.01,1.14,2.02,1.71,3.04-67.53,0-135.06,0-202.58,0,0-.67,0-1.33,0-2,1.73-.92,3.59-.46,5.39-.46,62.83-.03,125.66-.02,188.49-.05,1.95,0,3.99.51,5.87-.49Z"/><path class="cls-26" d="m51.22,107.04c.33-.67.67-1.35,1-2.02,2.34-1.71,5.06-1.4,7.71-1.4,26.79-.01,53.59,0,80.38-.02,2.32,0,4.66.17,6.97-.29,7.51-1.44,15.09-.62,22.65-.64,1.19,0,2.2.63,3.15,1.31l1.93,2.94c.17,1.59-1,1.93-2.14,2.21-1.63.4-3.3.29-4.96.29-36.37.04-72.74.03-109.11-.04-2.68,0-5.81.88-7.57-2.34Z"/><path class="cls-37" d="m82.2,54.05c1.33-2.32,2.66-4.64,4-6.97,3.07-1.01,6.23-.47,9.35-.49,12.88-.06,25.77-.02,38.65-.03,2.33,0,4.65-.04,6.62,1.49,1.35,1.84,3.01,3.52,3.28,5.96-1.85,1.88-4.27,1.61-6.56,1.62-16.26.06-32.52.06-48.77,0-2.28,0-4.7.27-6.57-1.58Z"/><path class="cls-13" d="m173.07,103.98c-6.44.01-12.89.04-19.33.03-1.99,0-3.98-.1-5.76,1.01-1.71-.98-3.57-.49-5.36-.49-27.35-.04-54.71-.01-82.06-.05-2.36,0-5.17.8-6.34-2.44.33-.66.67-1.33,1-1.99,1.78-.6,3.62-.44,5.44-.44,34.24,0,68.48-.01,102.72.01,2.63,0,5.36-.4,7.7,1.35,1.31.57,1.98,1.57,2,3Z"/><path class="cls-49" d="m69.21,76.05c.67-1.01,1.33-2.01,2-3.02,2.14-1.61,4.64-1.61,7.13-1.61,23.21-.01,46.41-.02,69.62,0,2.48,0,5.01-.15,7.13,1.56l1.93,2.94c-.98,3.41-3.89,2.44-6.11,2.45-15.1.11-30.2.06-45.3.06-10.12,0-20.25.05-30.37-.04-2.24-.02-4.8.41-6.04-2.35Z"/><path class="cls-19" d="m155.09,73c-27.96.01-55.92.03-83.88.04,1.1-2.14,1.43-4.75,3.79-6.11,23.73,1.18,47.47.26,71.21.51,1.98.02,3.99-.37,5.89.55,1.98,1.08,2.55,3.01,3,5Z"/><path class="cls-56" d="m82.2,54.05c20.63-.01,41.27-.03,61.9-.04,1.01,1.66,2.79,2.85,2.99,4.99-22.63.01-45.26.03-67.89.04.4-2.03,1.86-3.41,3-5Z"/><path class="cls-14" d="m152.08,67.99c-1.49.82-3.07,1.07-4.77,1.06-22.68-.03-45.37,0-68.05-.04-1.7,0-3.86.66-4.27-2.09-.25-1.23.74-1.94,1.21-2.87,1.62,1.11,3.46.99,5.3.99,21.3,0,42.6,0,63.9-.03,1.59,0,3.39.54,4.63-1.08,1.21,1.08,1.82,2.48,2.06,4.06Z"/><path class="cls-6" d="m207.04,162.93c-1.95,1.21-4.12,1.05-6.28,1.05-21.92,0-43.85,0-65.77,0-1.71-.98-3.58-.49-5.37-.49-41.02-.03-82.04-.02-123.06-.05-1.79,0-3.66.46-5.38-.46,0-.33,0-.67,0-1,58.03,0,116.05.04,174.08-.04,10.27-.01,20.58.83,30.79-1,1.07.3.79,1.26.99,1.99Z"/><path class="cls-31" d="m177.06,110.97c-1.95,1.21-4.13,1.05-6.29,1.05-38.21,0-76.43-.02-114.64.03-2.56,0-4.97-.08-6.91-2,0-1.21.93-1.64,1.78-2.13,2.16,1.09,4.48,1.12,6.82,1.12,37.12-.01,74.24-.03,111.36.04,2.3,0,4.58-.87,6.88-.1,1.07.3.79,1.26.99,1.99Z"/><path class="cls-31" d="m176.07,108.97c-2.72.85-5.49,1.08-8.34,1.07-36.46-.05-72.93-.03-109.39-.03-2.64,0-5.4.41-7.33-2.1.01-.31.09-.6.22-.87,1.77,1.22,3.8.98,5.78.98,37.63,0,75.26,0,112.9-.03,1.74,0,3.7.67,5.11-1.08,1.12.29.88,1.29,1.06,2.06Z"/><path class="cls-17" d="m171.07,100.98c-36.86.01-73.71.03-110.57.05-1.83,0-3.67.12-5.29-.98.33-.67.67-1.33,1-2,2.45.47,4.92.5,7.41.5,33.69-.02,67.38-.02,101.06.01,1.79,0,3.65-.46,5.39.42,1.07.3.79,1.27,1,2Z"/><path class="cls-2" d="m1.18,194.96c71.84,0,143.68,0,215.52.03,2.85,0,5.62-.22,8.33-1.07.55.14.91.41.71,1.06-2.11,1.42-4.5.96-6.8.96-72.59.02-145.18.01-217.77.01,0-.33,0-.67,0-1Z"/><path class="cls-39" d="m159.8,81.03c-31.2,0-62.39,0-93.59,0,.67-.99,1.33-1.98,2-2.97,28.6-.05,57.2,0,85.81-.02,1.66,0,3.35-.11,4.79.99.33.67.67,1.33,1,2Z"/><path class="cls-8" d="m158.8,79.03c-28.1,0-56.2,0-84.29,0-2.14,0-4.35.36-6.3-.96.33-.67.67-1.34,1-2.01,1.62,1.11,3.46.99,5.3.99,25.96,0,51.93,0,77.89-.03,1.59,0,3.39.54,4.63-1.08,1.17.7,1.28,2.01,1.78,3.1Z"/><path class="cls-62" d="m140.82,48.05c-16.28,0-32.56,0-48.83,0-1.98,0-4.01.24-5.79-.97-.04-1.47,1.67-1.77,2-3,8.54-1.11,17.12-.18,25.67-.52,8.05-.32,16.14.78,24.16-.63,1.5,1.39,2.02,3.32,2.79,5.12Z"/><path class="cls-38" d="m138.03,42.94c-.19,1.68-1.26,2.12-2.78,2.12-14.92-.03-29.84-.02-44.76-.09-.77,0-1.53-.58-2.3-.88.33-.68.67-1.35,1-2.03,15.97-.01,31.94-.03,47.91-.04.31.31.62.61.92.92Z"/><path class="cls-17" d="m170.07,98.98c-36.19.01-72.38.03-108.57.05-1.83,0-3.67.12-5.29-.98,0-1.21.93-1.64,1.79-2.14.3,2.42,2.15,2.11,3.78,2.11,34.53,0,69.07,0,103.6,0,1.31,0,2.7.21,3.62-1.1,1.12.29.88,1.29,1.06,2.06Z"/><path class="cls-50" d="m40.11,120.89c-1.14,2.62-3.48,2.1-5.58,2.1-11.11.02-22.23,0-33.34,0,0-2.33,0-4.66,0-6.99,1.28-1.26,2.92-1.5,4.59-1.53,8.59-.13,17.19-.12,25.78,0,1.69.02,3.28.41,4.63,1.49,2.12.99,2.85,3.1,3.93,4.93Z"/><path class="cls-47" d="m36.18,115.97c-11.67.01-23.34.03-35,.04,0-2.33,0-4.66,0-6.99.75-.71,1.64-1.25,2.65-1.27,8.79-.22,17.58-.86,26.35.22,2.71,2.13,4.62,4.87,6,8Z"/><path class="cls-29" d="m30.18,107.97c-4.43,2.03-9.11.81-13.66,1-5.1.21-10.22.05-15.34.05-.06-1.67-.11-3.33-.17-5,.06-.33.12-.67.18-1,1.3-1.25,2.96-1.5,4.63-1.47,6.79.15,13.6-.67,20.37.42,1.85,1.66,3.38,3.52,4,6Z"/><path class="cls-52" d="m1.19,98.02c0-2.33,0-4.67,0-7,5.16-2.64,10.59-1.38,15.95-1.1,2.66,1.66,3.95,4.3,5.06,7.06-.71,1.23-1.87,2.03-3.18,2.1-5.98.31-12.04,1.79-17.83-1.06Z"/><path class="cls-17" d="m1.19,98.02c7-.4,14.09.98,21.01-1.04,2.16,1,2.86,3.17,3.99,4.99-5.76,2.16-11.73.61-17.59,1.02-2.46.17-4.94.03-7.41.03,0-1.67,0-3.33,0-5Z"/><path class="cls-11" d="m54.22,102.04c1.94,1.93,4.34,2.02,6.9,2.01,27.06-.05,54.13-.05,81.19,0,1.9,0,4.02-.76,5.66.96-31.92,0-63.84,0-95.76,0,.67-.99,1.33-1.99,2-2.98Z"/><path class="cls-61" d="m17.13,89.92c-5.18,2.36-10.65.5-15.95,1.1,0-1.67,0-3.33,0-5,3.66-2.52,8.08-.73,11.95-2.11,1.04,2.2,3.77,3.27,4.01,6.01Z"/><path class="cls-21" d="m13.13,83.91c-.27,2.35-2.05,2.11-3.67,2.11-2.76,0-5.52,0-8.28,0-.06-.33-.11-.66-.17-.99.06-1.67.12-3.34.18-5.01,2.49-1.73,5.19-1.85,8.01-1.04,2.13.99,2.85,3.1,3.93,4.92Z"/><path class="cls-57" d="m9.2,78.99c-2.52,1.55-5.31.92-8.01,1.04-.03-4.02-.05-8.04-.08-12.06,3.05,3.41,6.17,6.78,8.09,11.03Z"/><path class="cls-45" d="m175,227.05c-1.41-1.76-3.38-1.08-5.12-1.08-37.27-.04-74.55-.04-111.82.02-1.75,0-4.19-1.17-5,1.78-4.01-2.24-8.03-4.48-12.04-6.72-.16-2.49,1.66-2.98,3.48-3.4,1.63-.37,3.3-.3,4.96-.3,42.84-.01,85.69-.04,128.53.06,3.23,0,7.23-1.1,8.93,3.37-4.08,1.88-7.43,5.16-11.92,6.27Z"/><path class="cls-40" d="m33.03,216.06c-3.43-.9-6.09-3.17-9-5-1-2.4.79-2.89,2.4-3.34,1.61-.45,3.31-.26,4.97-.26,55.2,0,110.4-.02,165.6.03,2.87,0,6.15-.84,8.04,2.51-2.9,1.84-5.53,4.17-8.99,5-3.29.49-6.6.57-9.93.57-47.54-.02-95.09-.01-142.63-.02-3.49,0-6.98.08-10.45.52Z"/><path class="cls-22" d="m17.04,207.06c-2.43-.29-3.81-2.47-5.95-3.28-.85-2.51,1.13-2.73,2.66-3.11,1.61-.4,3.31-.21,4.97-.21,63.54,0,127.08-.03,190.62.07,2.63,0,6.19-1.57,7.63,2.52-1.81.7-2.69,2.95-4.93,2.93-3.49,1.27-7.08,1.49-10.78,1.49-59.26,0-118.51-.16-177.77.08-2.18,0-4.28-.67-6.45-.5Z"/><path class="cls-12" d="m33.03,216.06c.7-3.33,3.4-2.06,5.27-2.06,42.85-.07,85.69-.05,128.54-.05,7.81,0,15.61.02,23.42-.01,2.01,0,3.99-.04,5.78,1.06-3.04,1.93-6.08,3.85-9.13,5.78-1.81-1.86-4.13-1.84-6.49-1.84-44.6.02-89.2,0-133.8.02-2.11,0-4.46-.52-5.61,2.1-2.48-1.95-6.06-2.14-7.98-4.98Z"/><path class="cls-59" d="m216.97,203.06c-1.41-1.76-3.38-1.08-5.13-1.08-65.25-.03-130.5-.04-195.75.02-1.75,0-4.19-1.17-5,1.78-1-.67-2-1.33-3-2-.86-2.28.51-3.02,2.37-3.27,1.15-.15,2.33-.05,3.49-.05,66.73,0,133.46-.02,200.2.07,2.08,0,5.29-1.51,5.82,2.52-.57,1.31-1.56,1.99-3,2Z"/><path class="cls-28" d="m17.04,207.06c1.23-1.64,3.03-1.09,4.61-1.09,63.46,0,126.93,0,190.39.02-2.29,1.42-4.3,3.31-7,4-1.64-.96-3.43-1.06-5.29-1.06-56.98.02-113.96,0-170.93.05-1.78,0-4.23-.99-4.78,2.08-2.69-.71-4.69-2.62-7-4Z"/><path class="cls-59" d="m219.97,201.07c-1.01-2.37-3.1-2.11-5.1-2.11-67.29,0-134.58,0-201.88,0-2.17,0-4.51-.27-4.9,2.83-.99-.67-1.99-1.33-2.98-2,1.06-2,2.94-1.84,4.79-1.84,69.98,0,139.96,0,209.94.02,1.45,0,3.05-.39,4.12,1.1-1.09,1.16-2.44,1.78-4,2Z"/><path class="cls-6" d="m1.18,162.98c42.71,0,85.42-.01,128.14.03,1.9,0,4.02-.76,5.67.96H1.18c0-.33,0-.67,0-1Z"/><path class="cls-18" d="m200.93,153.99c-1.82,1.8-4.11.96-6.17.96-64.53.05-129.06.04-193.58.04,0-.33,0-.67,0-1h199.75Z"/></g></g></svg>